# xmcd CD database file
#
# Track frame offsets:
#	150
#	25520
#	49777
#
# Disc length: 979 seconds
#
# Revision: 0
# Processed by: cddbd v1.5PL3 Copyright (c) Steve Scherf et al.
# Submitted via: CDex 1.50
#
DISCID=1803d103
DTITLE=織田裕二 - Love Somebody（CINEMA Version II）
DYEAR=2003
DGENRE=Pop
TTITLE0=Love Somebody（CINEMA Version II）
TTITLE1=Love Somebody（AKIRA'S PALM☆DRIVE REMIX）
TTITLE2=Love Somebody（CINEMA Version II Instrumental）
EXTD=YEAR: 2003
EXTT0=
EXTT1=
EXTT2=
PLAYORDER=
